<?xml version="1.0" encoding="iso-8859-1"?>
<!-- Generator: Adobe Illustrator 19.0.0, SVG Export Plug-In . SVG Version: 6.00 Build 0)  -->
<svg version="1.1" id="Layer_1" xmlns="http://www.w3.org/2000/svg" xmlns:xlink="http://www.w3.org/1999/xlink" x="0px" y="0px"
	 viewBox="0 0 512.002 512.002" style="enable-background:new 0 0 512.002 512.002;" xml:space="preserve">
<path style="fill:#E93233;" d="M397.832,175.005c-4.216-7.126-4.72-15.419-2.09-22.636l-113.666-37.052
	c-2.142,12.523-13.041,22.058-26.176,22.058c-11.047,0-20.518-6.745-24.523-16.342l-76.87,44.381
	c5.719,8.321,6.424,19.551,0.875,28.765c-6.057,10.057-17.719,14.654-28.578,12.214v95.552c10.769-2.169,22.198,2.527,28.108,12.515
	c5.944,10.047,4.506,22.409-2.689,30.807l78.375,45.25c3.426-10.71,13.456-18.465,25.302-18.465
	c11.883,0,21.941,7.802,25.335,18.562l77.472-44.728c-6.99-8.449-8.266-20.713-2.288-30.638c7.14-11.856,22.07-16.129,34.289-10.222
	l25.302-117.406C408.672,186.3,401.925,181.925,397.832,175.005z"/>
<g>
	<path style="fill:#B32426;" d="M397.832,175.004c-4.216-7.126-4.72-15.419-2.09-22.636l-5.247-1.711l-34.075,164.589
		c7.14-11.856,22.07-16.129,34.289-10.222l25.302-117.406C408.672,186.3,401.925,181.925,397.832,175.004z"/>
	<path style="fill:#B32426;" d="M281.236,390.614l77.471-44.728c-6.99-8.449-8.266-20.713-2.288-30.638l-87.257,60.37
		C274.853,378.907,279.222,384.232,281.236,390.614z"/>
</g>
<g>
	<path style="fill:#00D9C0;" d="M477.72,383.968c0.006-0.011,0.014-0.019,0.019-0.029c0.153-0.271,0.285-0.548,0.404-0.828
		c0.027-0.064,0.049-0.13,0.074-0.195c0.096-0.243,0.18-0.486,0.25-0.733c0.023-0.079,0.044-0.158,0.065-0.238
		c0.068-0.269,0.123-0.539,0.163-0.811c0.008-0.047,0.017-0.095,0.024-0.142c0.042-0.33,0.065-0.66,0.066-0.99
		c0-0.014,0.003-0.029,0.003-0.043V132.043c0-0.032-0.006-0.063-0.006-0.094c-0.006-0.646-0.092-1.292-0.257-1.929
		c-0.019-0.075-0.043-0.15-0.065-0.224c-0.068-0.235-0.148-0.468-0.239-0.7c-0.033-0.085-0.066-0.17-0.101-0.253
		c-0.105-0.241-0.222-0.479-0.352-0.714c-0.028-0.051-0.051-0.102-0.08-0.152c-0.006-0.012-0.012-0.024-0.018-0.036
		c-0.158-0.268-0.332-0.522-0.515-0.765c-0.041-0.054-0.086-0.105-0.128-0.157c-0.164-0.207-0.335-0.403-0.515-0.59
		c-0.055-0.057-0.111-0.113-0.168-0.169c-0.203-0.197-0.413-0.384-0.633-0.557c-0.035-0.027-0.066-0.056-0.1-0.082
		c-0.266-0.203-0.543-0.388-0.83-0.555c-0.012-0.006-0.022-0.016-0.033-0.023L260.044,1.085c-0.02-0.012-0.042-0.019-0.061-0.03
		c-0.287-0.163-0.583-0.312-0.89-0.439c-0.018-0.008-0.038-0.013-0.056-0.02c-0.278-0.112-0.564-0.207-0.856-0.289
		c-0.08-0.023-0.158-0.042-0.238-0.061c-0.24-0.059-0.484-0.107-0.731-0.144c-0.082-0.013-0.164-0.028-0.246-0.038
		C256.647,0.025,256.328,0,256.001,0c-0.327,0-0.647,0.025-0.963,0.063c-0.082,0.01-0.164,0.025-0.246,0.038
		c-0.248,0.038-0.492,0.085-0.732,0.144c-0.08,0.019-0.158,0.039-0.238,0.061c-0.292,0.082-0.579,0.177-0.857,0.289
		c-0.018,0.008-0.037,0.013-0.055,0.02c-0.308,0.127-0.604,0.276-0.891,0.439c-0.02,0.012-0.042,0.018-0.061,0.03L37.256,125.042
		c-0.013,0.008-0.024,0.017-0.037,0.024c-0.285,0.166-0.561,0.35-0.825,0.552c-0.038,0.029-0.072,0.06-0.109,0.089
		c-0.217,0.171-0.424,0.355-0.623,0.549c-0.059,0.057-0.116,0.115-0.174,0.174c-0.179,0.185-0.348,0.38-0.51,0.584
		c-0.043,0.054-0.089,0.106-0.132,0.161c-0.183,0.244-0.357,0.496-0.515,0.764c-0.006,0.012-0.012,0.024-0.018,0.036
		c-0.029,0.05-0.052,0.102-0.08,0.152c-0.13,0.235-0.248,0.472-0.352,0.714c-0.037,0.084-0.068,0.169-0.101,0.253
		c-0.091,0.231-0.17,0.464-0.239,0.7c-0.022,0.075-0.045,0.149-0.065,0.224c-0.165,0.638-0.249,1.285-0.257,1.929
		c0,0.031-0.006,0.063-0.006,0.094v247.916c0,0.014,0.003,0.028,0.003,0.043c0.001,0.33,0.024,0.661,0.066,0.991
		c0.006,0.047,0.016,0.093,0.023,0.14c0.04,0.273,0.095,0.543,0.164,0.814c0.02,0.08,0.041,0.158,0.064,0.237
		c0.071,0.247,0.155,0.493,0.251,0.735c0.025,0.064,0.046,0.129,0.073,0.193c0.119,0.28,0.251,0.557,0.404,0.828
		c0.005,0.011,0.014,0.019,0.019,0.03c0.139,0.244,0.3,0.475,0.463,0.703c0.211,0.294,0.439,0.569,0.681,0.828
		c0.05,0.053,0.092,0.112,0.143,0.164c0.215,0.216,0.444,0.41,0.678,0.597c0.042,0.033,0.078,0.072,0.12,0.105
		c0.259,0.199,0.53,0.376,0.808,0.541c0.027,0.016,0.051,0.037,0.078,0.052l0.008,0.004c0.013,0.008,0.027,0.015,0.04,0.023
		l214.658,123.934c0.02,0.012,0.042,0.019,0.063,0.031c0.287,0.163,0.583,0.31,0.89,0.439c0.018,0.008,0.037,0.013,0.055,0.02
		c0.278,0.113,0.565,0.207,0.857,0.289c0.08,0.023,0.158,0.042,0.238,0.061c0.239,0.059,0.483,0.107,0.731,0.144
		c0.082,0.013,0.164,0.028,0.247,0.038c0.316,0.038,0.636,0.063,0.961,0.063s0.646-0.025,0.961-0.063
		c0.083-0.01,0.164-0.025,0.247-0.038c0.248-0.038,0.492-0.085,0.731-0.144c0.08-0.019,0.158-0.039,0.238-0.061
		c0.292-0.082,0.579-0.176,0.857-0.289c0.018-0.008,0.037-0.013,0.055-0.02c0.307-0.127,0.604-0.276,0.89-0.439
		c0.02-0.012,0.042-0.019,0.063-0.031l214.656-123.932c0.012-0.006,0.024-0.014,0.036-0.02l0.01-0.005
		c0.036-0.021,0.067-0.047,0.102-0.069c0.269-0.161,0.532-0.332,0.784-0.524c0.051-0.039,0.094-0.084,0.142-0.124
		c0.226-0.182,0.449-0.37,0.656-0.578c0.065-0.065,0.117-0.138,0.18-0.205c0.229-0.246,0.444-0.506,0.643-0.783
		C477.418,384.446,477.58,384.213,477.72,383.968z M406.598,334.402c-3.884-2.198-8.818-0.831-11.017,3.056
		c-2.199,3.886-0.831,8.818,3.056,11.017l55.774,31.554L264.085,489.914V425.18c0-4.465-3.62-8.084-8.084-8.084
		c-4.465,0-8.084,3.62-8.084,8.084v64.734L57.591,380.029l55.593-31.452c3.886-2.198,5.254-7.131,3.056-11.017
		c-2.199-3.886-7.131-5.254-11.017-3.056l-55.839,31.592V146.185l54.262,31.957c1.288,0.759,2.7,1.119,4.095,1.119
		c2.769,0,5.466-1.424,6.973-3.983c2.266-3.847,0.984-8.802-2.863-11.068l-54.504-32.1l190.57-110.025v62.16
		c0,4.465,3.62,8.084,8.084,8.084c4.465,0,8.084-3.62,8.084-8.084v-62.16l190.569,110.025l-15.167,8.933
		c-3.847,2.266-5.129,7.221-2.863,11.068c1.507,2.559,4.204,3.983,6.973,3.983c1.394,0,2.807-0.361,4.095-1.12l14.926-8.79v219.912
		L406.598,334.402z"/>
	<path style="fill:#00D9C0;" d="M393.709,168.005l-129.623,76.341V137.374c0-4.465-3.62-8.084-8.084-8.084
		c-4.465,0-8.084,3.62-8.084,8.084v106.971l-88.857-52.332c-3.846-2.266-8.802-0.984-11.069,2.863
		c-2.266,3.847-0.984,8.802,2.863,11.068l88.978,52.403l-88.377,49.999c-3.886,2.198-5.255,7.131-3.056,11.017
		c2.199,3.886,7.131,5.255,11.017,3.056l88.501-50.069v99.701c0,4.465,3.62,8.084,8.084,8.084c4.465,0,8.084-3.62,8.084-8.084
		v-99.701l88.327,49.971c1.258,0.711,2.625,1.05,3.973,1.05c2.819,0,5.557-1.477,7.044-4.106c2.199-3.886,0.831-8.818-3.056-11.017
		l-88.204-49.9l129.744-76.412c3.847-2.266,5.129-7.221,2.863-11.069C402.513,167.021,397.557,165.739,393.709,168.005z"/>
	<path style="fill:#00D9C0;" d="M281.236,398.698c-0.99,0-1.983-0.182-2.929-0.55c-2.285-0.888-4.043-2.765-4.78-5.102
		c-2.437-7.723-9.52-12.911-17.626-12.911c-8.071,0-15.145,5.161-17.602,12.843c-0.745,2.329-2.504,4.197-4.785,5.078
		c-2.281,0.882-4.839,0.683-6.957-0.54l-78.375-45.25c-2.083-1.202-3.521-3.268-3.927-5.638c-0.405-2.369,0.265-4.797,1.829-6.623
		c5.148-6.008,5.899-14.621,1.87-21.431c-3.999-6.758-11.856-10.262-19.554-8.706c-2.376,0.474-4.842-0.135-6.717-1.67
		c-1.876-1.535-2.963-3.832-2.963-6.255v-95.552c0-2.455,1.117-4.778,3.033-6.312c1.918-1.535,4.429-2.115,6.824-1.575
		c7.779,1.747,15.766-1.666,19.88-8.497c3.728-6.191,3.488-14.048-0.612-20.014c-1.277-1.858-1.72-4.164-1.222-6.363
		c0.497-2.199,1.891-4.09,3.843-5.217l76.871-44.381c2.012-1.162,4.429-1.401,6.63-0.658c2.201,0.744,3.976,2.4,4.872,4.544
		c2.882,6.908,9.58,11.371,17.062,11.371c9.031,0,16.687-6.45,18.208-15.336c0.396-2.315,1.78-4.344,3.79-5.558
		c2.011-1.214,4.451-1.492,6.684-0.765l113.666,37.052c2.085,0.679,3.804,2.176,4.763,4.148c0.96,1.971,1.078,4.247,0.327,6.308
		c-1.906,5.23-1.376,10.97,1.452,15.75v0.001c2.735,4.623,7.346,7.82,12.65,8.774c2.158,0.388,4.066,1.635,5.286,3.457
		c1.22,1.822,1.649,4.06,1.187,6.203L398.611,306.73c-0.522,2.424-2.128,4.474-4.357,5.562c-2.229,1.088-4.832,1.092-7.065,0.014
		c-8.636-4.176-18.888-1.117-23.845,7.114c-4.042,6.712-3.403,15.277,1.592,21.314c1.517,1.833,2.149,4.243,1.728,6.585
		c-0.421,2.342-1.853,4.379-3.914,5.569l-77.472,44.728C284.034,398.333,282.638,398.698,281.236,398.698z M255.901,363.967
		c11.82,0,22.481,5.887,28.784,15.32l62.826-36.272c-4.501-10.155-3.938-22.108,1.982-31.938
		c7.513-12.474,21.517-18.608,35.167-16.368l21.897-101.603c-6.494-2.898-11.996-7.751-15.684-13.986v0.001
		c-3.858-6.519-5.435-13.989-4.635-21.347L287.29,125.52c-5.566,11.945-17.629,19.94-31.389,19.94
		c-10.92,0-20.949-5.072-27.404-13.427l-63.331,36.564c3.529,9.701,2.607,20.678-2.858,29.754
		c-5.969,9.912-16.295,15.988-27.419,16.707v78.398c11.003,0.91,21.168,7.061,26.982,16.888c5.891,9.958,6.33,21.969,1.662,32.118
		l63.643,36.744C233.49,369.824,244.13,363.967,255.901,363.967z"/>
</g>
<path style="fill:#FFDB56;" d="M255.901,363.967c-19.106,0-34.649,15.543-34.649,34.649c0,19.106,15.543,34.649,34.649,34.649
	s34.649-15.543,34.649-34.649C290.549,379.511,275.005,363.967,255.901,363.967z"/>
<path style="fill:#FBA806;" d="M255.901,363.967c-3.763,0-7.384,0.611-10.779,1.726c13.842,4.543,23.87,17.58,23.87,32.923
	c0,15.343-10.028,28.38-23.87,32.923c3.395,1.115,7.016,1.726,10.779,1.726c19.106,0,34.649-15.543,34.649-34.649
	C290.549,379.511,275.005,363.967,255.901,363.967z"/>
<path style="fill:#FFDB56;" d="M161.871,310.343c-4.713-7.966-12.245-13.618-21.21-15.918c-8.965-2.3-18.289-0.971-26.253,3.741
	c-7.966,4.713-13.618,12.245-15.919,21.21c-2.3,8.965-0.971,18.289,3.741,26.253c4.713,7.966,12.245,13.619,21.209,15.919
	c2.873,0.737,5.781,1.102,8.671,1.102c6.129,0,12.169-1.641,17.583-4.842C166.135,348.078,171.598,326.786,161.871,310.343z"/>
<path style="fill:#FBA806;" d="M161.871,310.343c-4.713-7.966-12.245-13.618-21.21-15.918c-6.499-1.667-13.183-1.419-19.404,0.635
	c8.014,2.607,14.727,7.967,19.056,15.283c9.727,16.443,4.264,37.735-12.178,47.463c-2.192,1.298-4.492,2.324-6.855,3.103
	c0.711,0.232,1.428,0.449,2.159,0.637c2.873,0.737,5.781,1.102,8.671,1.102c6.129,0,12.169-1.641,17.583-4.842
	C166.135,348.078,171.598,326.786,161.871,310.343z"/>
<path style="fill:#FFDB56;" d="M397.049,299.27c-7.928-4.776-17.243-6.177-26.223-3.946c-8.982,2.23-16.559,7.824-21.334,15.753
	c-4.775,7.928-6.175,17.241-3.946,26.223c2.23,8.982,7.824,16.559,15.752,21.333c5.467,3.293,11.592,4.981,17.813,4.981
	c2.801,0,5.622-0.343,8.411-1.035c8.982-2.23,16.559-7.824,21.333-15.752C418.713,330.46,413.416,309.126,397.049,299.27z"/>
<path style="fill:#FBA806;" d="M397.049,299.27c-7.928-4.776-17.243-6.177-26.223-3.946c-0.818,0.203-1.619,0.443-2.412,0.702
	c2.445,0.807,4.819,1.884,7.079,3.244c16.367,9.855,21.664,31.19,11.807,47.557c-4.337,7.204-10.992,12.47-18.908,15.047
	c3.468,1.144,7.076,1.74,10.723,1.74c2.801,0,5.622-0.343,8.411-1.035c8.982-2.23,16.559-7.824,21.333-15.752
	C418.713,330.46,413.416,309.126,397.049,299.27z"/>
<path style="fill:#FFDB56;" d="M450.515,143.835c-9.727-16.441-31.02-21.906-47.463-12.178
	c-16.443,9.728-21.906,31.02-12.178,47.463c6.462,10.922,18.023,16.998,29.879,16.998c5.993,0,12.063-1.554,17.585-4.82l0,0
	C454.78,181.57,460.243,160.279,450.515,143.835z"/>
<path style="fill:#FBA806;" d="M450.515,143.835c-8.425-14.239-25.521-20.236-40.631-15.271c7.732,2.519,14.617,7.739,19.073,15.271
	c9.728,16.442,4.265,37.734-12.178,47.463l0,0c-2.208,1.306-4.506,2.326-6.849,3.095c3.484,1.137,7.139,1.726,10.823,1.726
	c5.993,0,12.063-1.554,17.585-4.82l0,0C454.78,181.57,460.243,160.279,450.515,143.835z"/>
<path style="fill:#FFDB56;" d="M150.501,150.793c-7.928-4.775-17.24-6.176-26.223-3.946c-8.982,2.23-16.559,7.824-21.333,15.752
	c-9.856,16.367-4.56,37.7,11.807,47.557c5.579,3.361,11.734,4.959,17.818,4.959c11.759-0.001,23.243-5.979,29.739-16.766
	C172.165,181.983,166.868,160.649,150.501,150.793z"/>
<path style="fill:#FBA806;" d="M150.501,150.793c-7.928-4.775-17.24-6.176-26.223-3.946c-0.818,0.203-1.62,0.443-2.413,0.702
	c2.445,0.807,4.819,1.884,7.079,3.244c16.367,9.856,21.664,31.19,11.807,47.557c-4.46,7.406-11.274,12.546-18.912,15.039
	c3.514,1.152,7.134,1.727,10.73,1.727c11.759-0.001,23.243-5.979,29.739-16.766C172.165,181.983,166.868,160.649,150.501,150.793z"
	/>
<path style="fill:#FFDB56;" d="M255.901,76.162c-19.106,0-34.649,15.543-34.649,34.649s15.543,34.648,34.649,34.648
	s34.649-15.543,34.649-34.648C290.549,91.705,275.005,76.162,255.901,76.162z"/>
<path style="fill:#FBA806;" d="M255.901,76.162c-3.763,0-7.384,0.611-10.779,1.726c13.842,4.543,23.87,17.58,23.87,32.923
	s-10.028,28.38-23.87,32.923c3.395,1.115,7.016,1.726,10.779,1.726c19.106,0,34.649-15.543,34.649-34.648
	C290.549,91.705,275.005,76.162,255.901,76.162z"/>
<g>
</g>
<g>
</g>
<g>
</g>
<g>
</g>
<g>
</g>
<g>
</g>
<g>
</g>
<g>
</g>
<g>
</g>
<g>
</g>
<g>
</g>
<g>
</g>
<g>
</g>
<g>
</g>
<g>
</g>
</svg>
